<svg xmlns="http://www.w3.org/2000/svg" width="68" height="68" viewBox="0 0 68 68">
  <g id="Groupe_658" data-name="Groupe 658" transform="translate(-121 -536)">
    <path id="Tracé_232" data-name="Tracé 232" d="M34,0h0a34,34,0,0,1,0,68h0A34,34,0,0,1,34,0Z" transform="translate(121 536)" fill="#d8473b"/>
    <path id="Tracé_233" data-name="Tracé 233" d="M44,40V24.35a8.012,8.012,0,0,0-2.51-5.82L26.75,4.6a4,4,0,0,0-5.5,0L6.51,18.53A8.012,8.012,0,0,0,4,24.35V40a4,4,0,0,0,4,4H40A4,4,0,0,0,44,40Z" transform="translate(131 543.584)" fill="none" stroke="#fff" stroke-linecap="round" stroke-linejoin="round" stroke-width="1"/>
    <path id="Tracé_234" data-name="Tracé 234" d="M20.445,20.445a7.222,7.222,0,1,0-6.915-5.122l-.307.307L6.355,22.5A1.207,1.207,0,0,0,6,23.352v3.112a1.207,1.207,0,0,0,1.2,1.2H9.611a1.207,1.207,0,0,0,1.2-1.2,1.207,1.207,0,0,1,1.2-1.2,1.207,1.207,0,0,0,1.2-1.2,1.207,1.207,0,0,1,1.2-1.2h.7a1.207,1.207,0,0,0,.855-.355l2.052-2.052.307-.307A7.3,7.3,0,0,0,20.445,20.445Zm2.407-7.222a2.407,2.407,0,0,0-2.407-2.407" transform="translate(138.167 550.458)" fill="none" stroke="#fff" stroke-linecap="round" stroke-linejoin="round" stroke-width="1.5"/>
    <g id="Groupe_675" data-name="Groupe 675" transform="translate(2.785 1.574)">
      <g id="Rectangle_506" data-name="Rectangle 506" transform="translate(160.215 579.011)" fill="none" stroke="#fff" stroke-width="1">
        <rect width="10" height="5" rx="2" stroke="none"/>
        <rect x="0.5" y="0.5" width="9" height="4" rx="1.5" fill="none"/>
      </g>
      <g id="Rectangle_508" data-name="Rectangle 508" transform="translate(160.215 573.011)" fill="none" stroke="#fff" stroke-width="1">
        <rect width="10" height="5" rx="2" stroke="none"/>
        <rect x="0.5" y="0.5" width="9" height="4" rx="1.5" fill="none"/>
      </g>
      <g id="Rectangle_507" data-name="Rectangle 507" transform="translate(149.215 579.011)" fill="none" stroke="#fff" stroke-width="1">
        <rect width="10" height="5" rx="2" stroke="none"/>
        <rect x="0.5" y="0.5" width="9" height="4" rx="1.5" fill="none"/>
      </g>
    </g>
  </g>
</svg>
