<svg xmlns="http://www.w3.org/2000/svg" width="68" height="68" viewBox="0 0 68 68">
  <g id="Groupe_658" data-name="Groupe 658" transform="translate(-121 -536)">
    <g id="Tracé_232" data-name="Tracé 232" transform="translate(121 536)" fill="#fff">
      <path d="M 34.00003051757812 67.49994659423828 C 29.47732925415039 67.49994659423828 25.09017944335938 66.61428070068359 20.96044921875 64.8675537109375 C 16.97134971618652 63.18031311035156 13.38866996765137 60.76477432250977 10.31192016601562 57.68803405761719 C 7.235179901123047 54.61129379272461 4.819640159606934 51.02861404418945 3.132390022277832 47.03952407836914 C 1.3856600522995 42.9098014831543 0.5 38.52266311645508 0.5 33.99997329711914 C 0.5 29.4772834777832 1.3856600522995 25.09014320373535 3.132390022277832 20.96042251586914 C 4.819630146026611 16.97133255004883 7.235179901123047 13.38865375518799 10.31192016601562 10.31191349029541 C 13.3886604309082 7.235173225402832 16.9713306427002 4.819633483886719 20.96043014526367 3.132393360137939 C 25.09015083312988 1.385663270950317 29.47727966308594 0.5000032782554626 33.99996948242188 0.5000032782554626 C 38.52267074584961 0.5000032782554626 42.90982055664062 1.385663270950317 47.03955078125 3.132393360137939 C 51.02864837646484 4.819633483886719 54.6113395690918 7.235173225402832 57.68807983398438 10.31191349029541 C 60.76482009887695 13.38865375518799 63.18037033081055 16.97133255004883 64.86760711669922 20.96042251586914 C 66.61434173583984 25.09014320373535 67.5 29.4772834777832 67.5 33.99997329711914 C 67.5 38.52266311645508 66.61434173583984 42.9098014831543 64.86760711669922 47.03952407836914 C 63.18037033081055 51.02861404418945 60.76483154296875 54.61129379272461 57.68809127807617 57.68803405761719 C 54.61135101318359 60.76477432250977 51.02867126464844 63.18031311035156 47.03958129882812 64.8675537109375 C 42.90985870361328 66.61428070068359 38.52272033691406 67.49994659423828 34.00003051757812 67.49994659423828 Z" stroke="none"/>
      <path d="M 33.99996948242188 1 C 29.54455947875977 1 25.22294998168945 1.87237548828125 21.15520095825195 3.5928955078125 C 17.22570037841797 5.254932403564453 13.69644927978516 7.634483337402344 10.66547012329102 10.66547393798828 C 7.634479522705078 13.69645309448242 5.254928588867188 17.22570419311523 3.592887878417969 21.15520477294922 C 1.872367858886719 25.22295379638672 1 29.54456329345703 1 33.99997329711914 C 1 38.45538330078125 1.872367858886719 42.77699279785156 3.592887878417969 46.84474182128906 C 5.254928588867188 50.77424240112305 7.634490966796875 54.30349349975586 10.66547012329102 57.33447265625 C 13.69646072387695 60.36546325683594 17.2257194519043 62.74501419067383 21.15522003173828 64.40705108642578 C 25.22298812866211 66.12757110595703 29.54460906982422 66.99994659423828 34.00003051757812 66.99994659423828 C 38.45544052124023 66.99994659423828 42.77703857421875 66.12757110595703 46.84480285644531 64.40705108642578 C 50.7742919921875 62.74501419067383 54.30355072021484 60.36546325683594 57.33452987670898 57.33447265625 C 60.36550903320312 54.30349349975586 62.74507141113281 50.77424240112305 64.40711212158203 46.84474182128906 C 66.12763214111328 42.77699279785156 67 38.45538330078125 67 33.99997329711914 C 67 29.54456329345703 66.12763214111328 25.22295379638672 64.40711212158203 21.15520477294922 C 62.74507141113281 17.22570419311523 60.36550903320312 13.69645309448242 57.33451843261719 10.66547393798828 C 54.30353927612305 7.634483337402344 50.7742805480957 5.254932403564453 46.84477233886719 3.5928955078125 C 42.77700805664062 1.87237548828125 38.45539093017578 1 33.99996948242188 1 M 33.99996948242188 0 L 34.00003051757812 0 C 52.77769088745117 0 68 15.2223014831543 68 33.99997329711914 C 68 52.77764129638672 52.77769088745117 67.99994659423828 34.00003051757812 67.99994659423828 L 33.99996948242188 67.99994659423828 C 15.2223014831543 67.99994659423828 0 52.77764129638672 0 33.99997329711914 C 0 15.2223014831543 15.2223014831543 0 33.99996948242188 0 Z" stroke="none" fill="#d8473b"/>
    </g>
    <path id="Tracé_233" data-name="Tracé 233" d="M44,40V24.35a8.012,8.012,0,0,0-2.51-5.82L26.75,4.6a4,4,0,0,0-5.5,0L6.51,18.53A8.012,8.012,0,0,0,4,24.35V40a4,4,0,0,0,4,4H40A4,4,0,0,0,44,40Z" transform="translate(131 543.584)" fill="none" stroke="#d8473b" stroke-linecap="round" stroke-linejoin="round" stroke-width="1"/>
    <path id="Tracé_234" data-name="Tracé 234" d="M20.445,20.445a7.222,7.222,0,1,0-6.915-5.122l-.307.307L6.355,22.5A1.207,1.207,0,0,0,6,23.352v3.112a1.207,1.207,0,0,0,1.2,1.2H9.611a1.207,1.207,0,0,0,1.2-1.2,1.207,1.207,0,0,1,1.2-1.2,1.207,1.207,0,0,0,1.2-1.2,1.207,1.207,0,0,1,1.2-1.2h.7a1.207,1.207,0,0,0,.855-.355l2.052-2.052.307-.307A7.3,7.3,0,0,0,20.445,20.445Zm2.407-7.222a2.407,2.407,0,0,0-2.407-2.407" transform="translate(138.167 550.458)" fill="none" stroke="#d8473b" stroke-linecap="round" stroke-linejoin="round" stroke-width="1.5"/>
    <g id="Groupe_675" data-name="Groupe 675" transform="translate(2.785 1.574)">
      <g id="Rectangle_506" data-name="Rectangle 506" transform="translate(160.215 579.011)" fill="none" stroke="#d8473b" stroke-width="1">
        <rect width="10" height="5" rx="2" stroke="none"/>
        <rect x="0.5" y="0.5" width="9" height="4" rx="1.5" fill="none"/>
      </g>
      <g id="Rectangle_508" data-name="Rectangle 508" transform="translate(160.215 573.011)" fill="none" stroke="#d8473b" stroke-width="1">
        <rect width="10" height="5" rx="2" stroke="none"/>
        <rect x="0.5" y="0.5" width="9" height="4" rx="1.5" fill="none"/>
      </g>
      <g id="Rectangle_507" data-name="Rectangle 507" transform="translate(149.215 579.011)" fill="none" stroke="#d8473b" stroke-width="1">
        <rect width="10" height="5" rx="2" stroke="none"/>
        <rect x="0.5" y="0.5" width="9" height="4" rx="1.5" fill="none"/>
      </g>
    </g>
  </g>
</svg>
