<svg xmlns="http://www.w3.org/2000/svg" width="68" height="68" viewBox="0 0 68 68">
  <g id="Groupe_660" data-name="Groupe 660" transform="translate(-121 -536)">
    <path id="Tracé_228" data-name="Tracé 228" d="M34,0h0a34,34,0,0,1,0,68h0A34,34,0,0,1,34,0Z" transform="translate(121 536)" fill="#d8473b"/>
    <path id="Tracé_230" data-name="Tracé 230" d="M44,40V24.35a8.012,8.012,0,0,0-2.51-5.82L26.75,4.6a4,4,0,0,0-5.5,0L6.51,18.53A8.012,8.012,0,0,0,4,24.35V40a4,4,0,0,0,4,4H40A4,4,0,0,0,44,40Z" transform="translate(131 543.584)" fill="none" stroke="#fff" stroke-linecap="round" stroke-linejoin="round" stroke-width="1"/>
    <path id="Tracé_231" data-name="Tracé 231" d="M20.445,20.445a7.222,7.222,0,1,0-6.915-5.122l-.307.307L6.355,22.5A1.207,1.207,0,0,0,6,23.352v3.112a1.207,1.207,0,0,0,1.2,1.2H9.611a1.207,1.207,0,0,0,1.2-1.2,1.207,1.207,0,0,1,1.2-1.2,1.207,1.207,0,0,0,1.2-1.2,1.207,1.207,0,0,1,1.2-1.2h.7a1.207,1.207,0,0,0,.855-.355l2.052-2.052.307-.307A7.3,7.3,0,0,0,20.445,20.445Zm2.407-7.222a2.407,2.407,0,0,0-2.407-2.407" transform="translate(138.166 551.458)" fill="none" stroke="#fff" stroke-linecap="round" stroke-linejoin="round" stroke-width="1.5"/>
  </g>
</svg>
