<svg xmlns="http://www.w3.org/2000/svg" viewBox="0 0 225.86 225.86"><defs><style>.cls-1{fill:#d74840;}.cls-2{fill:none;stroke:#fff;stroke-miterlimit:10;}</style></defs><title>Fichier 2</title><g id="Calque_2" data-name="Calque 2"><g id="Calque_1-2" data-name="Calque 1"><circle class="cls-1" cx="112.93" cy="112.93" r="112.93"/><path class="cls-2" d="M158.9,86.59a3.83,3.83,0,0,1-3.83-3.83v-6.7h-6.7a3.83,3.83,0,0,1,0-7.66H158.9a3.83,3.83,0,0,1,3.83,3.83V82.76A3.83,3.83,0,0,1,158.9,86.59Z"/><path class="cls-2" d="M158.9,169H107.18a3.83,3.83,0,0,1-3.83-3.83V123.94H90.9v41.19A3.83,3.83,0,0,1,87.07,169H67a3.83,3.83,0,0,1-3.83-3.83v-45a3.83,3.83,0,0,1,7.66,0V161.3H83.24V120.11a3.83,3.83,0,0,1,3.83-3.83h20.11a3.83,3.83,0,0,1,3.83,3.83V161.3h44.06V120.11a3.83,3.83,0,0,1,7.66,0v45A3.83,3.83,0,0,1,158.9,169Z"/><path class="cls-2" d="M52.59,116.28a3.83,3.83,0,0,1-2.49-6.74l60.58-51.72a3.83,3.83,0,0,1,5,0l60.1,51.72a3.83,3.83,0,0,1-5,5.81L113.16,65.77,55.07,115.36A3.81,3.81,0,0,1,52.59,116.28Z"/><path class="cls-2" d="M143.58,141.18h-22a3.83,3.83,0,0,1-3.83-3.83V120.11a3.83,3.83,0,0,1,3.83-3.83h22a3.83,3.83,0,0,1,3.83,3.83v17.24A3.83,3.83,0,0,1,143.58,141.18Zm-18.2-7.66h14.37v-9.58H125.38Z"/></g></g></svg>