<svg xmlns="http://www.w3.org/2000/svg" viewBox="0 0 226.86 226.86"><defs><style>.cls-1{fill:#fff;}.cls-1,.cls-2{stroke:#d74840;stroke-miterlimit:10;}.cls-2{fill:none;}</style></defs><title>MIFTAH IN FINE</title><g id="Calque_2" data-name="Calque 2"><g id="Calque_1-2" data-name="Calque 1"><circle class="cls-1" cx="113.43" cy="113.43" r="112.93"/><path class="cls-2" d="M159.4,87.09a3.83,3.83,0,0,1-3.83-3.83v-6.7h-6.7a3.83,3.83,0,0,1,0-7.66H159.4a3.83,3.83,0,0,1,3.83,3.83V83.26A3.83,3.83,0,0,1,159.4,87.09Z"/><path class="cls-2" d="M159.4,169.46H107.68a3.83,3.83,0,0,1-3.83-3.83V124.44H91.4v41.19a3.83,3.83,0,0,1-3.83,3.83H67.45a3.83,3.83,0,0,1-3.83-3.83v-45a3.83,3.83,0,0,1,7.66,0V161.8H83.74V120.61a3.83,3.83,0,0,1,3.83-3.83h20.11a3.83,3.83,0,0,1,3.83,3.83V161.8h44.06V120.61a3.83,3.83,0,0,1,7.66,0v45A3.83,3.83,0,0,1,159.4,169.46Z"/><path class="cls-2" d="M53.09,116.78A3.83,3.83,0,0,1,50.6,110l60.58-51.72a3.83,3.83,0,0,1,5,0L176.27,110a3.83,3.83,0,0,1-5,5.81L113.66,66.27,55.57,115.86A3.81,3.81,0,0,1,53.09,116.78Z"/><path class="cls-2" d="M144.08,141.68H122a3.83,3.83,0,0,1-3.83-3.83V120.61a3.83,3.83,0,0,1,3.83-3.83h22a3.83,3.83,0,0,1,3.83,3.83v17.24A3.83,3.83,0,0,1,144.08,141.68ZM125.88,134h14.37v-9.58H125.88Z"/></g></g></svg>