<svg id="Calque_1" data-name="Calque 1" xmlns="http://www.w3.org/2000/svg" viewBox="0 0 225.86 225.86"><defs><style>.cls-1{fill:#d74840;}.cls-2{fill:none;stroke:#fff;stroke-miterlimit:10;}</style></defs><title>MIFTAH IN FINE 2</title><circle class="cls-1" cx="112.93" cy="112.93" r="112.93"/><path class="cls-2" d="M355.69,492.63a3.83,3.83,0,0,1-3.83-3.83v-6.7h-6.7a3.83,3.83,0,0,1,0-7.66h10.54a3.83,3.83,0,0,1,3.83,3.83V488.8A3.83,3.83,0,0,1,355.69,492.63Z" transform="translate(-196.79 -406.04)"/><path class="cls-2" d="M355.69,575H304a3.83,3.83,0,0,1-3.83-3.83V530H287.69v41.19a3.83,3.83,0,0,1-3.83,3.83H263.74a3.83,3.83,0,0,1-3.83-3.83v-45a3.83,3.83,0,0,1,7.66,0v41.19H280V526.15a3.83,3.83,0,0,1,3.83-3.83H304a3.83,3.83,0,0,1,3.83,3.83v41.19h44.06V526.15a3.83,3.83,0,0,1,7.66,0v45A3.83,3.83,0,0,1,355.69,575Z" transform="translate(-196.79 -406.04)"/><path class="cls-2" d="M249.38,522.32a3.83,3.83,0,0,1-2.49-6.74l60.58-51.72a3.83,3.83,0,0,1,5,0l60.1,51.72a3.83,3.83,0,0,1-5,5.81l-57.61-49.58L251.86,521.4A3.81,3.81,0,0,1,249.38,522.32Z" transform="translate(-196.79 -406.04)"/><path class="cls-2" d="M340.37,547.22h-22a3.83,3.83,0,0,1-3.83-3.83V526.15a3.83,3.83,0,0,1,3.83-3.83h22a3.83,3.83,0,0,1,3.83,3.83v17.24A3.83,3.83,0,0,1,340.37,547.22Zm-18.2-7.66h14.37V530H322.17Z" transform="translate(-196.79 -406.04)"/></svg>