<svg id="Calque_1" data-name="Calque 1" xmlns="http://www.w3.org/2000/svg" viewBox="0 0 226.86 226.86"><defs>
<style>.cls-1{fill:none;stroke:#d74840;stroke-miterlimit:10;}</style>
</defs>
<title>MIFTAH IN FINE 1</title>
<circle class="cls-1" cx="113.43" cy="113.43" r="112.93"/><path class="cls-1" d="M355.69,136.25a3.83,3.83,0,0,1-3.83-3.83v-6.7h-6.7a3.83,3.83,0,1,1,0-7.66h10.54a3.83,3.83,0,0,1,3.83,3.83v10.54A3.83,3.83,0,0,1,355.69,136.25Z" transform="translate(-196.29 -49.17)"/><path class="cls-1" d="M355.69,218.63H304a3.83,3.83,0,0,1-3.83-3.83V173.61H287.69V214.8a3.83,3.83,0,0,1-3.83,3.83H263.74a3.83,3.83,0,0,1-3.83-3.83v-45a3.83,3.83,0,1,1,7.66,0V211H280V169.78a3.83,3.83,0,0,1,3.83-3.83H304a3.83,3.83,0,0,1,3.83,3.83V211h44.06V169.78a3.83,3.83,0,1,1,7.66,0v45A3.83,3.83,0,0,1,355.69,218.63Z" transform="translate(-196.29 -49.17)"/><path class="cls-1" d="M249.38,165.95a3.83,3.83,0,0,1-2.49-6.74l60.58-51.72a3.83,3.83,0,0,1,5,0l60.1,51.72a3.83,3.83,0,0,1-5,5.81l-57.61-49.58L251.86,165A3.81,3.81,0,0,1,249.38,165.95Z" transform="translate(-196.29 -49.17)"/><path class="cls-1" d="M340.37,190.85h-22a3.83,3.83,0,0,1-3.83-3.83V169.78a3.83,3.83,0,0,1,3.83-3.83h22a3.83,3.83,0,0,1,3.83,3.83V187A3.83,3.83,0,0,1,340.37,190.85Zm-18.2-7.66h14.37v-9.58H322.17Z" transform="translate(-196.29 -49.17)"/></svg>