<svg xmlns="http://www.w3.org/2000/svg" viewBox="0 0 309 309"><defs><style>.cls-1{fill:#fff;}.cls-1,.cls-2{stroke:#d64840;stroke-miterlimit:10;}.cls-2{fill:none;stroke-width:1.5px;}</style></defs><title>MIFTAH FOGARIM</title><g id="Calque_2" data-name="Calque 2"><g id="Calque_1-2" data-name="Calque 1"><circle class="cls-1" cx="154.5" cy="154.5" r="154"/><path class="cls-2" d="M224.81,221.66V116.72H197.52V81H113.57v35.68H86.29V221.66H75.8V228H233.2v-6.3ZM113.57,188.08h-8.39V171.29h8.39Zm0-35.68h-8.39V135.61h8.39ZM100,188.08H91.62V171.29H100Zm0-35.68H91.62V135.61H100Zm97.51-18.89h8.39V150.3h-8.39Zm0,35.68h8.39V186h-8.39Zm12.71-35.68h8.39V150.3h-8.39Zm0,35.68h8.39V186h-8.39Zm-19,52.47H119.87V87.34h71.36Z"/><path class="cls-2" d="M148.2,128.77H129.32c-1.74,0-3.22-.86-3.22-2.6V101c0-1.74,1.48-3.63,3.22-3.63H148.2a3.72,3.72,0,0,1,3.29,3.63v25.18C151.49,127.91,149.94,128.77,148.2,128.77Zm-15.43-6h12.7V104h-12.7Z"/><path class="cls-2" d="M179.68,128.77H160.8c-1.74,0-3.29-.86-3.29-2.6V101a3.72,3.72,0,0,1,3.29-3.63h18.89c1.74,0,3.22,1.89,3.22,3.63v25.18C182.91,127.91,181.42,128.77,179.68,128.77Zm-15.49-6h12.7V104h-12.7Z"/><path class="cls-2" d="M148.2,166.87H129.32a3,3,0,0,1-3.22-2.92V138.76a3.35,3.35,0,0,1,3.22-3.31H148.2a3.41,3.41,0,0,1,3.29,3.31v25.18A3.09,3.09,0,0,1,148.2,166.87Zm-15.43-6h12.7V141.47h-12.7Z"/><path class="cls-2" d="M179.68,166.87H160.8a3.09,3.09,0,0,1-3.29-2.92V138.76a3.41,3.41,0,0,1,3.29-3.31h18.89a3.35,3.35,0,0,1,3.22,3.31v25.18A3,3,0,0,1,179.68,166.87Zm-15.49-6h12.7V141.47h-12.7Z"/><path class="cls-2" d="M148.2,209H129.32a3.14,3.14,0,0,1-3.22-3.06V180.73a3.24,3.24,0,0,1,3.22-3.17H148.2a3.29,3.29,0,0,1,3.29,3.17v25.18A3.19,3.19,0,0,1,148.2,209Zm-15.43-6.68h12.7V183.58h-12.7Z"/><path class="cls-2" d="M179.68,209H160.8a3.19,3.19,0,0,1-3.29-3.06V180.73a3.29,3.29,0,0,1,3.29-3.17h18.89a3.23,3.23,0,0,1,3.22,3.17v25.18A3.14,3.14,0,0,1,179.68,209Zm-15.49-6.68h12.7V183.58h-12.7Z"/></g></g></svg>