<svg xmlns="http://www.w3.org/2000/svg" viewBox="0 0 309 309"><defs><style>.cls-1{fill:#fff;}.cls-1,.cls-2{stroke:#d64840;stroke-miterlimit:10;}.cls-2{fill:none;stroke-width:1.5px;}</style></defs><title>MIFTAH RELAIS</title><g id="Calque_2" data-name="Calque 2"><g id="Calque_1-2" data-name="Calque 1"><circle class="cls-1" cx="154.5" cy="154.5" r="154"/><path class="cls-2" d="M134.08,99.87,131,122.61a2.46,2.46,0,0,0,2.43,2.79h40.18a2.46,2.46,0,0,0,2.43-2.79l-3.1-22.74a9.76,9.76,0,0,0-6.63-8l-4.8-1.6a14.73,14.73,0,1,0-16,0l-4.8,1.6A9.76,9.76,0,0,0,134.08,99.87Zm9.6-21.95a9.82,9.82,0,1,1,9.82,9.82A9.83,9.83,0,0,1,143.68,77.93Zm9.82,14.87,11.24,3.75a4.88,4.88,0,0,1,3.31,4l2.72,20H136.22l2.72-20a4.88,4.88,0,0,1,3.31-4Z"/><path class="cls-2" d="M71.65,231.8h40.18a2.46,2.46,0,0,0,2.43-2.79l-3.1-22.74a9.76,9.76,0,0,0-6.63-8l-4.8-1.6a14.73,14.73,0,1,0-16,0l-4.8,1.6a9.76,9.76,0,0,0-6.63,8L69.22,229a2.46,2.46,0,0,0,2.43,2.79Zm10.27-47.47a9.82,9.82,0,1,1,9.82,9.82A9.83,9.83,0,0,1,81.92,184.33Zm-4.74,22.61a4.88,4.88,0,0,1,3.31-4l11.24-3.75L103,202.95a4.88,4.88,0,0,1,3.31,4l2.72,20H74.46Z"/><path class="cls-2" d="M234.68,206.28a9.76,9.76,0,0,0-6.63-8l-4.8-1.6a14.73,14.73,0,1,0-16,0l-4.8,1.6a9.76,9.76,0,0,0-6.63,8L192.74,229a2.46,2.46,0,0,0,2.43,2.79h40.18a2.46,2.46,0,0,0,2.43-2.79Zm-29.25-21.95a9.82,9.82,0,1,1,9.82,9.82A9.83,9.83,0,0,1,205.44,184.33ZM198,226.89l2.72-20a4.88,4.88,0,0,1,3.31-4l11.24-3.75,11.24,3.75a4.88,4.88,0,0,1,3.31,4l2.72,20Z"/><path class="cls-2" d="M122.5,165.58,147,190.16a2.46,2.46,0,0,0,.39.32l.12.06a1.91,1.91,0,0,0,.69.27l.07,0a2.47,2.47,0,0,0,.94,0h0a2.44,2.44,0,0,0,1.22-.66h0l36.83-36.83a2.45,2.45,0,0,0,0-3.47l-12.28-12.28a2.45,2.45,0,0,0-3.47,0l-22.84,22.84-10.54-10.54a2.53,2.53,0,0,0-3.47,0L122.5,162.11A2.46,2.46,0,0,0,122.5,165.58Zm14-10.49,10.59,10.59a2.44,2.44,0,0,0,3.81-.43l22.45-22.45,8.81,8.81L148.77,185l-21.06-21.11Z"/><path class="cls-2" d="M92.11,162.23a2.46,2.46,0,0,0,2.46-2.46,59,59,0,0,1,17.91-42.29l3.61,4.84,6.77-15.75-17,2,3.69,4.94a63.89,63.89,0,0,0-19.86,46.25A2.46,2.46,0,0,0,92.11,162.23Z"/><path class="cls-2" d="M184.93,209.64a59.08,59.08,0,0,1-49.69,6.19l2.6-5.46-17.09,1.35,9.71,14.12,2.65-5.55a63.92,63.92,0,0,0,54.44-6.5,2.46,2.46,0,0,0-2.62-4.15Z"/><path class="cls-2" d="M185.37,104.45a2.46,2.46,0,1,0-2.46,4.25,59,59,0,0,1,27.72,36.63l-6,.71,10.25,13.74L221.66,144l-6.12.72A63.89,63.89,0,0,0,185.37,104.45Z"/></g></g></svg>