<svg xmlns="http://www.w3.org/2000/svg" viewBox="0 0 308 308"><defs><style>.cls-1{fill:#d64840;}.cls-2{fill:none;stroke:#fff;stroke-miterlimit:10;stroke-width:1.5px;}</style></defs><title>MIFTAH ETRANGER</title><g id="Calque_2" data-name="Calque 2"><g id="Calque_1-2" data-name="Calque 1"><circle class="cls-1" cx="154" cy="154" r="154"/><polyline class="cls-2" points="112.33 174.78 112.42 171.15 97.8 153 86.91 153 94.17 171.15 94.17 174.78"/><path class="cls-2" d="M145,189.3a7.26,7.26,0,0,0-7.26-7.26H78.06c-.4,0-9.3-10.89-9.3-10.89H61.5L65,185.73c-2,1.07-3.47,2.15-3.47,4.06,0,5.75,9.25,6.77,12.93,6.77H94.17v3.63L83.79,218.35H94.17l18.15-14.52,7-7.26h18.4A7.26,7.26,0,0,0,145,189.3Z"/><path class="cls-2" d="M228.5,153H214l-3.63,3.63H199.46L181.3,138.48H155.89v-3.63A10.89,10.89,0,0,1,166.78,124h10.89l7.26-7.26h18.15l7.14-7.44"/><polygon class="cls-2" points="181.3 200.2 174.04 200.2 174.04 178.41 166.78 171.15 152.26 171.15 152.26 160.14 159.52 153 177.67 153 192.2 167.4 192.2 189.3 181.3 200.2"/><path class="cls-2" d="M98.2,145.74A65.34,65.34,0,1,1,127,207.46"/><path class="cls-2" d="M108.7,120.33H116a10.89,10.89,0,0,1,10.89,10.89v7.26h-7.26l-7.26,7.26V153"/></g></g></svg>