<svg id="Calque_1" data-name="Calque 1" xmlns="http://www.w3.org/2000/svg" viewBox="0 0 308 308"><defs><style>.cls-1{fill:#d64840;}.cls-2{fill:none;stroke:#fff;stroke-miterlimit:10;stroke-width:1.5px;}</style></defs><title>MIFTAH FOGARIM 2</title><circle class="cls-1" cx="154" cy="154" r="154"/><path class="cls-2" d="M619.74,983.94V879H592.46V843.33H508.51V879H481.23V983.94H470.73v6.3h157.4v-6.3ZM508.51,950.36h-8.39V933.57h8.39Zm0-35.68h-8.39V897.89h8.39Zm-13.56,35.68h-8.39V933.57h8.39Zm0-35.68h-8.39V897.89h8.39Zm97.51-18.89h8.39v16.79h-8.39Zm0,35.68h8.39v16.79h-8.39Zm12.71-35.68h8.39v16.79h-8.39Zm0,35.68h8.39v16.79h-8.39Zm-19,52.47H514.81V849.62h71.36Z" transform="translate(-395.44 -762.78)"/><path class="cls-2" d="M543.14,891H524.25c-1.74,0-3.22-.86-3.22-2.6V863.27c0-1.74,1.48-3.63,3.22-3.63h18.89a3.72,3.72,0,0,1,3.29,3.63v25.18C546.43,890.19,544.88,891,543.14,891Zm-15.43-6h12.7V866.32h-12.7Z" transform="translate(-395.44 -762.78)"/><path class="cls-2" d="M574.62,891H555.73c-1.74,0-3.29-.86-3.29-2.6V863.27a3.72,3.72,0,0,1,3.29-3.63h18.89c1.74,0,3.22,1.89,3.22,3.63v25.18C577.84,890.19,576.36,891,574.62,891Zm-15.49-6h12.7V866.32h-12.7Z" transform="translate(-395.44 -762.78)"/><path class="cls-2" d="M543.14,929.15H524.25a3,3,0,0,1-3.22-2.92V901a3.35,3.35,0,0,1,3.22-3.31h18.89a3.41,3.41,0,0,1,3.29,3.31v25.18A3.09,3.09,0,0,1,543.14,929.15Zm-15.43-6h12.7V903.75h-12.7Z" transform="translate(-395.44 -762.78)"/><path class="cls-2" d="M574.62,929.15H555.73a3.09,3.09,0,0,1-3.29-2.92V901a3.41,3.41,0,0,1,3.29-3.31h18.89a3.35,3.35,0,0,1,3.22,3.31v25.18A3,3,0,0,1,574.62,929.15Zm-15.49-6h12.7V903.75h-12.7Z" transform="translate(-395.44 -762.78)"/><path class="cls-2" d="M543.14,971.26H524.25A3.14,3.14,0,0,1,521,968.2V943a3.24,3.24,0,0,1,3.22-3.17h18.89a3.29,3.29,0,0,1,3.29,3.17V968.2A3.19,3.19,0,0,1,543.14,971.26Zm-15.43-6.68h12.7V945.86h-12.7Z" transform="translate(-395.44 -762.78)"/><path class="cls-2" d="M574.62,971.26H555.73a3.19,3.19,0,0,1-3.29-3.06V943a3.29,3.29,0,0,1,3.29-3.17h18.89a3.23,3.23,0,0,1,3.22,3.17V968.2A3.14,3.14,0,0,1,574.62,971.26Zm-15.49-6.68h12.7V945.86h-12.7Z" transform="translate(-395.44 -762.78)"/></svg>