<svg xmlns="http://www.w3.org/2000/svg" viewBox="0 0 309 309"><defs><style>.cls-1,.cls-2{fill:#fff;}.cls-1{stroke:#d64840;stroke-miterlimit:10;}.cls-3{fill:#d8473b;}.cls-4,.cls-5{fill:none;stroke:#d8473b;stroke-linecap:round;stroke-linejoin:round;}.cls-5{stroke-width:1.5px;}</style></defs><title>MIFTAH TERRAIN_3</title><g id="Calque_2" data-name="Calque 2"><g id="Calque_1-2" data-name="Calque 1"><circle class="cls-1" cx="154.5" cy="154.5" r="154"/><g id="Groupe_1009" data-name="Groupe 1009"><g id="Groupe_1008" data-name="Groupe 1008"><g id="Tracé_238" data-name="Tracé 238"><path class="cls-2" d="M224.37,227.17H84.63l27.8-34.38h84.14Z"/><path class="cls-3" d="M113.27,194.54l-25,30.86H220.68l-25-30.86H113.27M111.59,191h85.82l30.65,37.91H80.94Z"/></g><path id="Tracé_235" data-name="Tracé 235" class="cls-4" d="M225,194.65V139.51a28.23,28.23,0,0,0-8.84-20.5L164.19,69.93a14.09,14.09,0,0,0-19.38,0L92.88,119A28.23,28.23,0,0,0,84,139.51v55.14a14.09,14.09,0,0,0,14.09,14.09H210.87A14.09,14.09,0,0,0,225,194.65Z"/></g><path id="Tracé_236" data-name="Tracé 236" class="cls-5" d="M167.22,150a25.44,25.44,0,1,0-24.36-18L141.78,133l-24.2,24.2a4.25,4.25,0,0,0-1.25,3v11a4.25,4.25,0,0,0,4.23,4.23h8.49a4.25,4.25,0,0,0,4.23-4.23,4.25,4.25,0,0,1,4.23-4.23,4.25,4.25,0,0,0,4.23-4.23,4.25,4.25,0,0,1,4.23-4.23h2.47a4.25,4.25,0,0,0,3-1.25l7.23-7.23,1.08-1.08A25.72,25.72,0,0,0,167.22,150Zm8.48-25.44a8.48,8.48,0,0,0-8.48-8.48"/></g></g></g></svg>