<svg id="Calque_1" data-name="Calque 1" xmlns="http://www.w3.org/2000/svg" viewBox="0 0 226.86 226.86"><defs><style>.cls-1{fill:none;stroke:#d74840;stroke-miterlimit:10;}</style></defs><title>MIFTAH ADL SAKAN 1</title><circle class="cls-1" cx="113.43" cy="113.43" r="112.93"/><path class="cls-1" d="M300.24,213.65h-59.7a4.48,4.48,0,0,0-4.46,4.46v4.46h73.49v-4.46a4.48,4.48,0,0,0-4.46-4.46h-4.87Zm-54.77-3.23h54.7a5.81,5.81,0,0,0-5.71-4.9H251.18a5.81,5.81,0,0,0-5.71,4.9Zm-4.93,0h1.68a9,9,0,0,1,9-8.12h43.27a9,9,0,0,1,9,8.12h1.68a7.71,7.71,0,0,1,7.69,7.69v7.69H232.85v-7.69a7.71,7.71,0,0,1,7.69-7.69Z" transform="translate(-184.92 -70.81)"/><path class="cls-1" d="M371.38,207.25l-.2-.11-.06,0h0l0,0-1.34-.65,0-.05L305.35,171.8l-2.63,4.55,62,38.37,0-.07,1.48,1,.19.13.21.12h0a6.14,6.14,0,0,0,4.27.74,4.49,4.49,0,0,0,3.06-2.1h0l.1-.18a4.49,4.49,0,0,0,.29-3.69,6.14,6.14,0,0,0-2.79-3.33h0l-.2-.1M294.53,186.5l-26.27-15.17a2.76,2.76,0,0,0-1.48.21,2.69,2.69,0,0,0-1.25,1.12h0l-2.39,4.14a.54.54,0,0,0,0,.41.53.53,0,0,0,.24.32h0l28.27,16.32h0a.54.54,0,0,0,.4,0,.53.53,0,0,0,.32-.25h0l2.39-4.14a2.7,2.7,0,0,0,.34-1.65A2.76,2.76,0,0,0,294.53,186.5Zm12.25-23.87-24-13.85L271,169.21l24,13.85Zm-23.53-17.3,26.28,15.17a2.76,2.76,0,0,0,1.47-.21,2.69,2.69,0,0,0,1.25-1.11h0l2.39-4.14h0a.54.54,0,0,0,0-.4.53.53,0,0,0-.24-.32h0L286.18,138a.54.54,0,0,0-.73.2l-2.39,4.14h0a2.7,2.7,0,0,0-.34,1.64A2.76,2.76,0,0,0,283.26,145.33Zm89.46,59,.18.09.22.13.88.47,0,.06a9.29,9.29,0,0,1,3.45,4.6,7.68,7.68,0,0,1-.56,6.33l-.1.18h0a7.68,7.68,0,0,1-5.2,3.64,9.27,9.27,0,0,1-5.56-.63l0,.08-.92-.57h0l-.29-.18-.29-.18h0L301,179.07l-3.51,6.08a6,6,0,0,1,.79,2.38,5.89,5.89,0,0,1-.76,3.59l-2.39,4.14h0a3.75,3.75,0,0,1-5.12,1.37h0l-28.47-16.44,0,0a3.74,3.74,0,0,1-1.14-5l.07-.13,2.32-4h0a5.9,5.9,0,0,1,2.74-2.45,6,6,0,0,1,2.45-.51l12.36-21.41a6,6,0,0,1-.79-2.38,5.89,5.89,0,0,1,.76-3.59h0l2.39-4.14a3.76,3.76,0,0,1,5.13-1.37l28.27,16.32h0a3.74,3.74,0,0,1,1.37,5.12h0L315,160.79h0a5.91,5.91,0,0,1-2.73,2.46,6,6,0,0,1-2.46.51l-3,5.2Z" transform="translate(-184.92 -70.81)"/></svg>