<svg xmlns="http://www.w3.org/2000/svg" viewBox="0 0 308 308"><defs><style>.cls-1{fill:#d64840;}.cls-2{fill:none;stroke:#fff;stroke-miterlimit:10;stroke-width:1.5px;}</style></defs><title>MIFTAH RELAIS</title><g id="Calque_2" data-name="Calque 2"><g id="Calque_1-2" data-name="Calque 1"><circle class="cls-1" cx="154" cy="154" r="154"/><path class="cls-2" d="M133.58,99.37l-3.1,22.74a2.46,2.46,0,0,0,2.43,2.79h40.18a2.46,2.46,0,0,0,2.43-2.79l-3.1-22.74a9.76,9.76,0,0,0-6.63-8l-4.8-1.6a14.73,14.73,0,1,0-16,0l-4.8,1.6A9.76,9.76,0,0,0,133.58,99.37Zm9.6-21.95A9.82,9.82,0,1,1,153,87.25,9.83,9.83,0,0,1,143.18,77.43ZM153,92.29,164.24,96a4.88,4.88,0,0,1,3.31,4l2.72,20H135.72l2.72-20a4.88,4.88,0,0,1,3.31-4Z"/><path class="cls-2" d="M71.15,231.3h40.18a2.46,2.46,0,0,0,2.43-2.79l-3.1-22.74a9.76,9.76,0,0,0-6.63-8l-4.8-1.6a14.73,14.73,0,1,0-16,0l-4.8,1.6a9.76,9.76,0,0,0-6.63,8l-3.1,22.74a2.46,2.46,0,0,0,2.43,2.79Zm10.27-47.47a9.82,9.82,0,1,1,9.82,9.82A9.83,9.83,0,0,1,81.42,183.83Zm-4.74,22.61a4.88,4.88,0,0,1,3.31-4l11.24-3.75,11.24,3.75a4.88,4.88,0,0,1,3.31,4l2.72,20H74Z"/><path class="cls-2" d="M234.18,205.78a9.76,9.76,0,0,0-6.63-8l-4.8-1.6a14.73,14.73,0,1,0-16,0l-4.8,1.6a9.76,9.76,0,0,0-6.63,8l-3.1,22.74a2.46,2.46,0,0,0,2.43,2.79h40.18a2.46,2.46,0,0,0,2.43-2.79Zm-29.25-21.95a9.82,9.82,0,1,1,9.82,9.82A9.83,9.83,0,0,1,204.94,183.83Zm-7.46,42.56,2.72-20a4.88,4.88,0,0,1,3.31-4l11.24-3.75L226,202.45a4.88,4.88,0,0,1,3.31,4l2.72,20Z"/><path class="cls-2" d="M122,165.08l24.53,24.58a2.46,2.46,0,0,0,.39.32l.12.06a1.91,1.91,0,0,0,.69.27l.07,0a2.47,2.47,0,0,0,.94,0h0a2.44,2.44,0,0,0,1.22-.66h0l36.83-36.83a2.45,2.45,0,0,0,0-3.47l-12.28-12.28a2.45,2.45,0,0,0-3.47,0l-22.84,22.84-10.54-10.54a2.53,2.53,0,0,0-3.47,0L122,161.61A2.46,2.46,0,0,0,122,165.08Zm14-10.49,10.59,10.59a2.44,2.44,0,0,0,3.81-.43l22.45-22.45,8.81,8.81-33.36,33.36-21.06-21.11Z"/><path class="cls-2" d="M91.61,161.73a2.46,2.46,0,0,0,2.46-2.46A59,59,0,0,1,112,117l3.61,4.84,6.77-15.75-17,2L109,113a63.89,63.89,0,0,0-19.86,46.25A2.46,2.46,0,0,0,91.61,161.73Z"/><path class="cls-2" d="M184.43,209.14a59.08,59.08,0,0,1-49.69,6.19l2.6-5.46-17.09,1.35L130,225.34l2.65-5.55a63.92,63.92,0,0,0,54.44-6.5,2.46,2.46,0,0,0-2.62-4.15Z"/><path class="cls-2" d="M184.87,103.95a2.46,2.46,0,1,0-2.46,4.25,59,59,0,0,1,27.72,36.63l-6,.71,10.25,13.74,6.78-15.74-6.12.72A63.89,63.89,0,0,0,184.87,103.95Z"/></g></g></svg>