<svg xmlns="http://www.w3.org/2000/svg" viewBox="0 0 308 308"><defs><style>.cls-1{fill:#d64840;}.cls-2{fill:none;stroke:#fff;stroke-miterlimit:10;stroke-width:1.5px;}</style></defs><title>MIFTAH FOGALOGE_1</title><g id="Calque_2" data-name="Calque 2"><g id="Calque_1-2" data-name="Calque 1"><circle class="cls-1" cx="154" cy="154" r="154"/><polygon class="cls-2" points="217.32 117.18 202.87 126.77 210.13 131.59 217.32 126.82 248.63 147.58 248.63 184.74 208.94 184.74 208.94 192.44 256.17 192.44 256.17 154.55 260.92 157.7 266.26 149.64 217.32 117.18"/><polygon class="cls-2" points="67.37 147.58 98.68 126.82 105.87 131.59 113.13 126.77 98.68 117.18 49.74 149.64 55.09 157.7 59.83 154.55 59.83 192.44 107.06 192.44 107.06 184.74 67.37 184.74 67.37 147.58"/><path class="cls-2" d="M217.32,141l-10.68-7.08-7.26-4.82L158,101.65,98.68,141l6.48,9.77,5.75-3.82v45.92h94.17V146.94l5.75,3.82Zm-97.27-2.5L158,113.32l37.95,25.16v45H120.05Z"/></g></g></svg>