<svg xmlns="http://www.w3.org/2000/svg" viewBox="0 0 309 309"><defs><style>.cls-1{fill:#fff;}.cls-1,.cls-2{stroke:#d64840;stroke-miterlimit:10;}.cls-2{fill:none;stroke-width:1.5px;}</style></defs><title>MIFTAH ETRANGER</title><g id="Calque_2" data-name="Calque 2"><g id="Calque_1-2" data-name="Calque 1"><circle class="cls-1" cx="154.5" cy="154.5" r="154"/><polyline class="cls-2" points="112.83 175.28 112.92 171.65 98.3 153.5 87.41 153.5 94.67 171.65 94.67 175.28"/><path class="cls-2" d="M145.5,189.8a7.26,7.26,0,0,0-7.26-7.26H78.56c-.4,0-9.3-10.89-9.3-10.89H62l3.47,14.58c-2,1.07-3.47,2.15-3.47,4.06,0,5.75,9.25,6.77,12.93,6.77H94.67v3.63L84.29,218.85H94.67l18.15-14.52,7-7.26h18.4a7.26,7.26,0,0,0,7.26-7.26Z"/><path class="cls-2" d="M229,153.5H214.48l-3.63,3.63H200L181.8,139H156.39v-3.63a10.89,10.89,0,0,1,10.89-10.89h10.89l7.26-7.26h18.15l7.14-7.44"/><polygon class="cls-2" points="181.8 200.7 174.54 200.7 174.54 178.91 167.28 171.65 152.76 171.65 152.76 160.64 160.02 153.5 178.17 153.5 192.7 167.9 192.7 189.8 181.8 200.7"/><path class="cls-2" d="M98.7,146.24A65.34,65.34,0,1,1,127.52,208"/><path class="cls-2" d="M109.2,120.83h7.26a10.89,10.89,0,0,1,10.89,10.89V139h-7.26l-7.26,7.26v7.26"/></g></g></svg>