<svg xmlns="http://www.w3.org/2000/svg" viewBox="0 0 308 308"><defs><style>.cls-1{fill:#d64840;}.cls-2{fill:none;stroke:#fff;stroke-miterlimit:10;stroke-width:1.5px;}</style></defs><title>MIFTAH FOGARIM_1</title><g id="Calque_2" data-name="Calque 2"><g id="Calque_1-2" data-name="Calque 1"><circle class="cls-1" cx="154" cy="154" r="154"/><path class="cls-2" d="M224.31,221.16V116.22H197V80.54H113.07v35.68H85.79V221.16H75.3v6.3H232.7v-6.3ZM113.07,187.58h-8.39V170.79h8.39Zm0-35.68h-8.39V135.11h8.39ZM99.51,187.58H91.12V170.79h8.39Zm0-35.68H91.12V135.11h8.39ZM197,133h8.39V149.8H197Zm0,35.68h8.39v16.79H197ZM209.74,133h8.39V149.8h-8.39Zm0,35.68h8.39v16.79h-8.39Zm-19,52.47H119.37V86.84h71.36Z"/><path class="cls-2" d="M147.7,128.27H128.82c-1.74,0-3.22-.86-3.22-2.6V100.48c0-1.74,1.48-3.63,3.22-3.63H147.7a3.72,3.72,0,0,1,3.29,3.63v25.18C151,127.41,149.44,128.27,147.7,128.27Zm-15.43-6H145V103.54h-12.7Z"/><path class="cls-2" d="M179.18,128.27H160.3c-1.74,0-3.29-.86-3.29-2.6V100.48a3.72,3.72,0,0,1,3.29-3.63h18.89c1.74,0,3.22,1.89,3.22,3.63v25.18C182.41,127.41,180.92,128.27,179.18,128.27Zm-15.49-6h12.7V103.54h-12.7Z"/><path class="cls-2" d="M147.7,166.37H128.82a3,3,0,0,1-3.22-2.92V138.26a3.35,3.35,0,0,1,3.22-3.31H147.7a3.41,3.41,0,0,1,3.29,3.31v25.18A3.09,3.09,0,0,1,147.7,166.37Zm-15.43-6H145V141h-12.7Z"/><path class="cls-2" d="M179.18,166.37H160.3a3.09,3.09,0,0,1-3.29-2.92V138.26A3.41,3.41,0,0,1,160.3,135h18.89a3.35,3.35,0,0,1,3.22,3.31v25.18A3,3,0,0,1,179.18,166.37Zm-15.49-6h12.7V141h-12.7Z"/><path class="cls-2" d="M147.7,208.48H128.82a3.14,3.14,0,0,1-3.22-3.06V180.23a3.24,3.24,0,0,1,3.22-3.17H147.7a3.29,3.29,0,0,1,3.29,3.17v25.18A3.19,3.19,0,0,1,147.7,208.48Zm-15.43-6.68H145V183.08h-12.7Z"/><path class="cls-2" d="M179.18,208.48H160.3a3.19,3.19,0,0,1-3.29-3.06V180.23a3.29,3.29,0,0,1,3.29-3.17h18.89a3.23,3.23,0,0,1,3.22,3.17v25.18A3.14,3.14,0,0,1,179.18,208.48Zm-15.49-6.68h12.7V183.08h-12.7Z"/></g></g></svg>