<svg id="Calque_1" data-name="Calque 1" xmlns="http://www.w3.org/2000/svg" viewBox="0 0 308 308"><defs><style>.cls-1{fill:#d64840;}.cls-2{fill:none;stroke:#fff;stroke-miterlimit:10;stroke-width:1.5px;}</style></defs><title>MIFTAH RELAIS 2</title><circle class="cls-1" cx="154" cy="154" r="154"/><path class="cls-2" d="M518.58,841.09l-3.1,22.74a2.46,2.46,0,0,0,2.43,2.79h40.18a2.46,2.46,0,0,0,2.43-2.79l-3.1-22.74a9.76,9.76,0,0,0-6.63-8l-4.8-1.6a14.73,14.73,0,1,0-16,0l-4.8,1.6A9.76,9.76,0,0,0,518.58,841.09Zm9.6-21.95A9.82,9.82,0,1,1,538,829,9.83,9.83,0,0,1,528.18,819.14ZM538,834l11.24,3.75a4.88,4.88,0,0,1,3.31,4l2.72,20H520.72l2.72-20a4.88,4.88,0,0,1,3.31-4Z" transform="translate(-385 -741.72)"/><path class="cls-2" d="M456.15,973h40.18a2.46,2.46,0,0,0,2.43-2.79l-3.1-22.74a9.76,9.76,0,0,0-6.63-8l-4.8-1.6a14.73,14.73,0,1,0-16,0l-4.8,1.6a9.76,9.76,0,0,0-6.63,8l-3.1,22.74a2.46,2.46,0,0,0,2.43,2.79Zm10.27-47.47a9.82,9.82,0,1,1,9.82,9.82A9.83,9.83,0,0,1,466.42,925.55Zm-4.74,22.61a4.88,4.88,0,0,1,3.31-4l11.24-3.75,11.24,3.75a4.88,4.88,0,0,1,3.31,4l2.72,20H459Z" transform="translate(-385 -741.72)"/><path class="cls-2" d="M619.18,947.49a9.76,9.76,0,0,0-6.63-8l-4.8-1.6a14.73,14.73,0,1,0-16,0l-4.8,1.6a9.76,9.76,0,0,0-6.63,8l-3.1,22.74a2.46,2.46,0,0,0,2.43,2.79h40.18a2.46,2.46,0,0,0,2.43-2.79Zm-29.25-21.95a9.82,9.82,0,1,1,9.82,9.82A9.83,9.83,0,0,1,589.94,925.55Zm-7.46,42.56,2.72-20a4.88,4.88,0,0,1,3.31-4l11.24-3.75L611,944.16a4.88,4.88,0,0,1,3.31,4l2.72,20Z" transform="translate(-385 -741.72)"/><path class="cls-2" d="M507,906.79l24.53,24.58a2.46,2.46,0,0,0,.39.32l.12.06a1.91,1.91,0,0,0,.69.27l.07,0a2.47,2.47,0,0,0,.94,0h0a2.44,2.44,0,0,0,1.22-.66h0l36.83-36.83a2.45,2.45,0,0,0,0-3.47L559.56,878.8a2.45,2.45,0,0,0-3.47,0l-22.84,22.84-10.54-10.54a2.53,2.53,0,0,0-3.47,0L507,903.32A2.46,2.46,0,0,0,507,906.79Zm14-10.49,10.59,10.59a2.44,2.44,0,0,0,3.81-.43L557.82,884l8.81,8.81-33.36,33.36-21.06-21.11Z" transform="translate(-385 -741.72)"/><path class="cls-2" d="M476.61,903.45a2.46,2.46,0,0,0,2.46-2.46A59,59,0,0,1,497,858.7l3.61,4.84,6.77-15.75-17,2,3.69,4.94A63.89,63.89,0,0,0,474.16,901,2.46,2.46,0,0,0,476.61,903.45Z" transform="translate(-385 -741.72)"/><path class="cls-2" d="M569.43,950.85A59.08,59.08,0,0,1,519.74,957l2.6-5.46-17.09,1.35L515,967.05l2.65-5.55a63.92,63.92,0,0,0,54.44-6.5,2.46,2.46,0,0,0-2.62-4.15Z" transform="translate(-385 -741.72)"/><path class="cls-2" d="M569.87,845.66a2.46,2.46,0,1,0-2.46,4.25,59,59,0,0,1,27.72,36.63l-6,.71L599.39,901l6.78-15.74L600,886A63.89,63.89,0,0,0,569.87,845.66Z" transform="translate(-385 -741.72)"/></svg>