<svg id="Calque_1" data-name="Calque 1" xmlns="http://www.w3.org/2000/svg" viewBox="0 0 309 309"><defs><style>.cls-1,.cls-2{fill:none;stroke:#d64840;stroke-miterlimit:10;}.cls-2{stroke-width:1.5px;}</style></defs><title>MIFTAH FOGARIM 1</title><circle class="cls-1" cx="154.5" cy="154.5" r="154"/><path class="cls-2" d="M616.73,467V362H589.45V326.34H505.5V362H478.22V467H467.72v6.3h157.4V467ZM505.5,433.38h-8.39V416.59h8.39Zm0-35.68h-8.39V380.91h8.39Zm-13.56,35.68h-8.39V416.59h8.39Zm0-35.68h-8.39V380.91h8.39Zm97.51-18.89h8.39V395.6h-8.39Zm0,35.68h8.39v16.79h-8.39Zm12.71-35.68h8.39V395.6h-8.39Zm0,35.68h8.39v16.79h-8.39Zm-19,52.47H511.8V332.64h71.36Z" transform="translate(-391.93 -245.3)"/><path class="cls-2" d="M540.13,374.06H521.24c-1.74,0-3.22-.86-3.22-2.6V346.28c0-1.74,1.48-3.63,3.22-3.63h18.89a3.72,3.72,0,0,1,3.29,3.63v25.18C543.42,373.2,541.87,374.06,540.13,374.06Zm-15.43-6h12.7V349.33H524.7Z" transform="translate(-391.93 -245.3)"/><path class="cls-2" d="M571.61,374.06H552.72c-1.74,0-3.29-.86-3.29-2.6V346.28a3.72,3.72,0,0,1,3.29-3.63h18.89c1.74,0,3.22,1.89,3.22,3.63v25.18C574.83,373.2,573.35,374.06,571.61,374.06Zm-15.49-6h12.7V349.33h-12.7Z" transform="translate(-391.93 -245.3)"/><path class="cls-2" d="M540.13,412.16H521.24a3,3,0,0,1-3.22-2.92V384.06a3.35,3.35,0,0,1,3.22-3.31h18.89a3.41,3.41,0,0,1,3.29,3.31v25.18A3.09,3.09,0,0,1,540.13,412.16Zm-15.43-6h12.7V386.76H524.7Z" transform="translate(-391.93 -245.3)"/><path class="cls-2" d="M571.61,412.16H552.72a3.09,3.09,0,0,1-3.29-2.92V384.06a3.41,3.41,0,0,1,3.29-3.31h18.89a3.35,3.35,0,0,1,3.22,3.31v25.18A3,3,0,0,1,571.61,412.16Zm-15.49-6h12.7V386.76h-12.7Z" transform="translate(-391.93 -245.3)"/><path class="cls-2" d="M540.13,454.27H521.24a3.14,3.14,0,0,1-3.22-3.06V426a3.24,3.24,0,0,1,3.22-3.17h18.89a3.29,3.29,0,0,1,3.29,3.17v25.18A3.19,3.19,0,0,1,540.13,454.27Zm-15.43-6.68h12.7V428.87H524.7Z" transform="translate(-391.93 -245.3)"/><path class="cls-2" d="M571.61,454.27H552.72a3.19,3.19,0,0,1-3.29-3.06V426a3.29,3.29,0,0,1,3.29-3.17h18.89a3.23,3.23,0,0,1,3.22,3.17v25.18A3.14,3.14,0,0,1,571.61,454.27Zm-15.49-6.68h12.7V428.87h-12.7Z" transform="translate(-391.93 -245.3)"/></svg>