<svg xmlns="http://www.w3.org/2000/svg" viewBox="0 0 308 308"><defs><style>.cls-1{fill:#d64840;}.cls-2{fill:none;stroke:#fff;stroke-miterlimit:10;stroke-width:1.5px;}</style></defs><title>MIFTAH PRO</title><g id="Calque_2" data-name="Calque 2"><g id="Calque_1-2" data-name="Calque 1"><circle class="cls-1" cx="154" cy="154" r="154"/><path class="cls-2" d="M106.69,172.07c-22.08,0-35.34-9.42-35.34-9.42,24.79-16-4.05-82.44,49.47-82.44,10,0,13.07,5.86,13.07,5.86A23.46,23.46,0,0,1,145,88.51c-4.59,6.34-6.65,14.91-6.31,26.47a13.45,13.45,0,0,0-2.65,2.48c-4.62,5.67-3.27,13.43-2.83,16,.73,4.22,2.65,15.42,11.6,19.58A44.08,44.08,0,0,0,155,169.64a72.6,72.6,0,0,1-18.67,2.43v8.34l-.48,1.54-.07,0c-.55.22-1.19.45-1.87.7-5.34,2-15.84,5.86-21.27,16.3l-5.82-18.48v-8.43h-.08Zm2.44,47.13v-4.73l-9.92-10.29H82.86l18-23.61a166.22,166.22,0,0,0-21.62,5.9c-6.09,2.56-19.7,10.12-19.7,27.72v5c0,4.74,3.47,8.59,7.75,8.59h44.06A18.2,18.2,0,0,1,109.14,219.2Zm118.64-28.46c-2.82-1.12-10.87-3.71-17.47-6.2l-11.82,33.07-10.84-18.26c1.72-1.22,7.08-5.64,7.08-10.61s-5.67-8.17-11-8.17-11.46,3.18-11.46,8.17,5.34,9.39,7.07,10.61l-10.83,18.26-11.7-33.07c-6.62,2.53-14.6,5-17.58,6.2-6.38,2.56-20.68,5.86-20.68,23.45v5a8.36,8.36,0,0,0,8.12,8.59H240.33a8.36,8.36,0,0,0,8.12-8.59v-5C248.45,196.59,234.14,193.29,227.78,190.74Zm-3.36-58.92c-1.82,10.58-3.84,13.32-8.81,13.32a14,14,0,0,1-1.42-.1c-2.38,17.9-21.1,29.61-30.77,29.61s-28.29-11.66-30.74-29.5l-.28,0c-4.92,0-8.07-2.8-9.88-13.32-1.56-9,1.93-10.12,6.08-10.26-3-28.61,7.44-35.45,24.53-35.45,0,0-1.15-5.9,7.83-5.9,14.25,0,44.24,10.61,36.69,41.33C222.09,121.59,226,122.31,224.42,131.82Z"/></g></g></svg>