<svg xmlns="http://www.w3.org/2000/svg" viewBox="0 0 225.86 225.86"><defs><style>.cls-1{fill:#d74840;}.cls-2{fill:none;stroke:#fff;stroke-miterlimit:10;}</style></defs><title>MIFTAH ADL SAKAN</title><g id="Calque_2" data-name="Calque 2"><g id="Calque_1-2" data-name="Calque 1"><circle class="cls-1" cx="112.93" cy="112.93" r="112.93"/><path class="cls-2" d="M114.82,142.33H55.12a4.48,4.48,0,0,0-4.46,4.46v4.46h73.49V146.8a4.48,4.48,0,0,0-4.46-4.46h-4.87Zm-54.77-3.23h54.7a5.81,5.81,0,0,0-5.71-4.9H65.77a5.81,5.81,0,0,0-5.71,4.9Zm-4.93,0H56.8a9,9,0,0,1,9-8.12H109a9,9,0,0,1,9,8.12h1.68a7.71,7.71,0,0,1,7.69,7.69v7.69H47.43V146.8a7.71,7.71,0,0,1,7.69-7.69Z"/><path class="cls-2" d="M186,135.93l-.2-.11-.06,0h0l0,0-1.34-.65,0-.05-64.42-34.59L117.3,105l62,38.37,0-.07,1.48,1,.19.13.21.12h0a6.14,6.14,0,0,0,4.27.74,4.49,4.49,0,0,0,3.06-2.1h0l.1-.18a4.49,4.49,0,0,0,.29-3.69,6.14,6.14,0,0,0-2.79-3.33h0l-.2-.1m-76.84-20.74L82.85,100a2.76,2.76,0,0,0-1.48.21,2.69,2.69,0,0,0-1.25,1.12h0l-2.39,4.14a.54.54,0,0,0,0,.41.53.53,0,0,0,.24.32h0l28.27,16.32h0a.54.54,0,0,0,.4,0,.53.53,0,0,0,.32-.25h0l2.39-4.14a2.7,2.7,0,0,0,.34-1.65A2.76,2.76,0,0,0,109.12,115.19Zm12.25-23.87-24-13.85L85.59,97.9l24,13.85ZM97.84,74l26.28,15.17a2.76,2.76,0,0,0,1.47-.21,2.69,2.69,0,0,0,1.25-1.11h0l2.39-4.14h0a.54.54,0,0,0,0-.4A.53.53,0,0,0,129,83h0L100.76,66.66a.54.54,0,0,0-.73.2L97.64,71h0a2.7,2.7,0,0,0-.34,1.64A2.76,2.76,0,0,0,97.84,74Zm89.46,59,.18.09.22.13.88.47,0,.06a9.29,9.29,0,0,1,3.45,4.6,7.68,7.68,0,0,1-.56,6.33l-.1.18h0a7.68,7.68,0,0,1-5.2,3.64,9.27,9.27,0,0,1-5.56-.63l0,.08-.92-.57h0l-.29-.18L179,147h0l-63.44-39.26-3.51,6.08a6,6,0,0,1,.79,2.38,5.89,5.89,0,0,1-.76,3.59L109.71,124h0a3.75,3.75,0,0,1-5.12,1.37h0L76.12,108.9l0,0a3.74,3.74,0,0,1-1.14-5l.07-.13,2.32-4h0a5.9,5.9,0,0,1,2.74-2.45,6,6,0,0,1,2.45-.51L94.88,75.37A6,6,0,0,1,94.1,73a5.89,5.89,0,0,1,.76-3.59h0l2.39-4.14a3.76,3.76,0,0,1,5.13-1.37L130.65,80.2h0A3.74,3.74,0,0,1,132,85.32h0l-2.39,4.14h0a5.91,5.91,0,0,1-2.73,2.46,6,6,0,0,1-2.46.51l-3,5.2Z"/></g></g></svg>