<svg id="Calque_1" data-name="Calque 1" xmlns="http://www.w3.org/2000/svg" viewBox="0 0 309 309"><defs><style>.cls-1,.cls-2{fill:none;stroke:#d64840;stroke-miterlimit:10;}.cls-2{stroke-width:1.5px;}</style></defs><title>MIFTAH FOGALOGE 1</title><circle class="cls-1" cx="154.5" cy="154.5" r="154"/><polygon class="cls-2" points="217.82 117.68 203.37 127.27 210.63 132.09 217.82 127.32 249.13 148.08 249.13 185.24 209.44 185.24 209.44 192.94 256.67 192.94 256.67 155.05 261.42 158.2 266.76 150.14 217.82 117.68"/><polygon class="cls-2" points="67.87 148.08 99.18 127.32 106.37 132.09 113.63 127.27 99.18 117.68 50.24 150.14 55.59 158.2 60.33 155.05 60.33 192.94 107.56 192.94 107.56 185.24 67.87 185.24 67.87 148.08"/><path class="cls-2" d="M568.27,345.54l-10.68-7.08-7.26-4.82-41.38-27.44-59.32,39.34,6.48,9.77,5.75-3.82v45.92H556V351.5l5.75,3.82ZM471,343l37.95-25.16L546.89,343v45H471Z" transform="translate(-350.45 -204.06)"/></svg>