<svg xmlns="http://www.w3.org/2000/svg" viewBox="0 0 308 308"><defs><style>.cls-1{fill:#d64840;}.cls-2{fill:#fff;}.cls-3,.cls-4{fill:none;stroke:#fff;stroke-linecap:round;stroke-linejoin:round;}.cls-4{stroke-width:1.5px;}</style></defs><title>MIFTAH TERRAIN_4</title><g id="Calque_2" data-name="Calque 2"><g id="Calque_1-2" data-name="Calque 1"><circle class="cls-1" cx="154" cy="154" r="154"/><g id="Groupe_1009" data-name="Groupe 1009"><g id="Groupe_1008" data-name="Groupe 1008"><g id="Tracé_238" data-name="Tracé 238"><path class="cls-2" d="M112.77,194l-25,30.86H220.18l-25-30.86H112.77m-1.68-3.52h85.82l30.65,37.91H80.44Z"/></g><path id="Tracé_235" data-name="Tracé 235" class="cls-3" d="M224.46,194.15V139a28.23,28.23,0,0,0-8.84-20.5L163.69,69.43a14.09,14.09,0,0,0-19.38,0L92.38,118.51A28.23,28.23,0,0,0,83.54,139v55.14a14.09,14.09,0,0,0,14.09,14.09H210.37A14.09,14.09,0,0,0,224.46,194.15Z"/></g><path id="Tracé_236" data-name="Tracé 236" class="cls-4" d="M166.72,149.47a25.44,25.44,0,1,0-24.36-18l-1.08,1.08-24.2,24.2a4.25,4.25,0,0,0-1.25,3v11a4.25,4.25,0,0,0,4.23,4.23h8.49a4.25,4.25,0,0,0,4.23-4.23,4.25,4.25,0,0,1,4.23-4.23,4.25,4.25,0,0,0,4.23-4.23,4.25,4.25,0,0,1,4.23-4.23h2.47a4.25,4.25,0,0,0,3-1.25l7.23-7.23,1.08-1.08A25.72,25.72,0,0,0,166.72,149.47ZM175.2,124a8.48,8.48,0,0,0-8.48-8.48"/></g></g></g></svg>