<svg xmlns="http://www.w3.org/2000/svg" width="47.38" height="33.02" viewBox="0 0 47.38 33.02">
  <g id="Groupe_720" data-name="Groupe 720" transform="translate(-0.31 -7.49)">
    <path id="Tracé_251" data-name="Tracé 251" d="M46.14,27.64l-7.77-3.71A6.938,6.938,0,0,0,41.41,18c0-3.72-2.59-6.73-5.79-6.73a5.151,5.151,0,0,0-2.99.99,11.709,11.709,0,0,1-1.01,10.59,5.962,5.962,0,0,0,1.34,1.13v.01l5,2.38a4.268,4.268,0,0,1,2.33,3.86v6.5h5.35a1.408,1.408,0,0,0,1.3-1.5V29.04A1.532,1.532,0,0,0,46.14,27.64Z" fill="none" stroke="#535353" stroke-width="1.5"/>
    <path id="Tracé_252" data-name="Tracé 252" d="M15.15,23.92a6.112,6.112,0,0,0,1.14-.96,11.64,11.64,0,0,1-1.05-10.78,5.189,5.189,0,0,0-2.86-.91c-3.2,0-5.79,3.01-5.79,6.73a6.917,6.917,0,0,0,3.13,5.98L1.87,27.64a1.522,1.522,0,0,0-.81,1.4v6.19a1.408,1.408,0,0,0,1.3,1.5H7.54v-6.5a4.264,4.264,0,0,1,2.37-3.88Z" fill="none" stroke="#535353" stroke-width="1.5"/>
    <path id="Tracé_253" data-name="Tracé 253" d="M36.93,28.51l-6.76-3.23-2.85-1.36a7.9,7.9,0,0,0,2.92-3.46,9.108,9.108,0,0,0,.54-6.14c-.85-3.5-3.58-6.08-6.86-6.08-3.22,0-5.91,2.49-6.82,5.89a9.791,9.791,0,0,0-.35,2.45,9.319,9.319,0,0,0,.94,4.09,7.846,7.846,0,0,0,2.94,3.31l-2.74,1.27L10.92,28.5a1.893,1.893,0,0,0-1.01,1.73V37.9a1.745,1.745,0,0,0,1.6,1.86H36.32a1.739,1.739,0,0,0,1.6-1.86V30.23A1.879,1.879,0,0,0,36.93,28.51Z" fill="none" stroke="#535353" stroke-width="1.5"/>
  </g>
</svg>
