<svg xmlns="http://www.w3.org/2000/svg" width="108.099" height="29.674" viewBox="0 0 108.099 29.674">
  <g id="Groupe_954" data-name="Groupe 954" transform="translate(-233.169 -375.758)">
    <path id="Tracé_333" data-name="Tracé 333" d="M242.564,404.442a5.4,5.4,0,0,0,4.038-1.8l13.551-15.879,14.337,16.764a5.417,5.417,0,0,0,8.164.1l14.4-16.878,14.32,16.773a5.418,5.418,0,0,0,8.165.1l21.728-25.43-9.419,0a5.4,5.4,0,0,0-4.124,1.908l-12.234,14.3-14.408-16.844a5.419,5.419,0,0,0-8.165.1L278.6,394.412l-14.413-16.849a5.418,5.418,0,0,0-8.164.1l-22.858,26.754Z" fill="#d8473b"/>
    <rect id="Rectangle_559" data-name="Rectangle 559" width="7.184" height="6.844" transform="translate(256.895 394.137)" fill="#d8473b"/>
  </g>
</svg>
