<svg xmlns="http://www.w3.org/2000/svg" width="108.099" height="29.674" viewBox="0 0 108.099 29.674">
  <g id="Groupe_954" data-name="Groupe 954" transform="translate(-233.169 -375.758)">
    <g id="Tracé_333" data-name="Tracé 333" fill="none">
      <path d="M242.564,404.442a5.4,5.4,0,0,0,4.038-1.8l13.551-15.879,14.337,16.764a5.417,5.417,0,0,0,8.164.1l14.4-16.878,14.32,16.773a5.418,5.418,0,0,0,8.165.1l21.728-25.43-9.419,0a5.4,5.4,0,0,0-4.124,1.908l-12.234,14.3-14.408-16.844a5.419,5.419,0,0,0-8.165.1L278.6,394.412l-14.413-16.849a5.418,5.418,0,0,0-8.164.1l-22.858,26.754Z" stroke="none"/>
      <path d="M 315.4987487792969 403.932373046875 C 316.6064147949219 403.932373046875 317.6673889160156 403.4608459472656 318.4123840332031 402.6380920410156 L 338.0125427246094 379.697998046875 L 331.8483276367188 379.6990661621094 C 330.6993408203125 379.6990661621094 329.6124877929688 380.2019958496094 328.86376953125 381.08203125 L 315.4895629882812 396.714111328125 L 299.9544067382812 378.5522766113281 C 299.2101440429688 377.7295227050781 298.149169921875 377.2579956054688 297.0408325195312 377.2579956054688 C 295.891845703125 377.2579956054688 294.8049621582031 377.7608947753906 294.0567626953125 378.6403198242188 L 278.6048278808594 396.7197265625 L 263.0633239746094 378.5513916015625 C 262.3216857910156 377.729248046875 261.2618408203125 377.2579956054688 260.1529846191406 377.2579956054688 C 259.0041809082031 377.2579956054688 257.9164428710938 377.7612609863281 257.1674499511719 378.64013671875 L 236.4169311523438 402.9271240234375 L 242.5643310546875 402.9417419433594 C 243.6726684570312 402.9417419433594 244.7323455810547 402.470947265625 245.4744110107422 401.6494445800781 L 260.152587890625 384.4496765136719 L 275.6327819824219 402.5504455566406 C 276.3805847167969 403.4286804199219 277.4681701660156 403.932373046875 278.61669921875 403.932373046875 C 279.7225341796875 403.932373046875 280.7823486328125 403.4610595703125 281.5272521972656 402.6387634277344 L 297.0535583496094 384.4392395019531 L 312.5169372558594 402.5509643554688 C 313.2638244628906 403.4288635253906 314.3506469726562 403.932373046875 315.4987487792969 403.932373046875 M 315.4987487792969 405.432373046875 C 313.8476867675781 405.432373046875 312.3675231933594 404.6902160644531 311.3744506835938 403.5229187011719 L 297.0540161132812 386.7498779296875 L 282.6551818847656 403.6277770996094 C 281.6620788574219 404.7339782714844 280.2215270996094 405.432373046875 278.61669921875 405.432373046875 C 276.9640197753906 405.432373046875 275.4846801757812 404.6902160644531 274.49072265625 403.5229187011719 L 260.15380859375 386.7589721679688 L 246.602783203125 402.6379699707031 C 245.6105041503906 403.7458190917969 244.1691284179688 404.4417419433594 242.5643310546875 404.4417419433594 L 233.1690216064453 404.41943359375 L 256.0270080566406 377.665771484375 C 257.0217590332031 376.4984741210938 258.5010986328125 375.7579956054688 260.1529846191406 375.7579956054688 C 261.7577819824219 375.7579956054688 263.2000122070312 376.4547424316406 264.1914367675781 377.5625915527344 L 278.6043395996094 394.4115905761719 L 292.9164733886719 377.665771484375 C 293.9096069335938 376.4984741210938 295.3897705078125 375.7579956054688 297.0408325195312 375.7579956054688 C 298.6464538574219 375.7579956054688 300.0878295898438 376.4547424316406 301.0817565917969 377.5625915527344 L 315.4896850585938 394.4066162109375 L 327.7239990234375 380.1068725585938 C 328.7171020507812 378.9395751953125 330.197265625 378.1990661621094 331.8483276367188 378.1990661621094 L 341.267578125 378.1974182128906 L 319.5397338867188 403.6277770996094 C 318.5466003417969 404.7339782714844 317.105224609375 405.432373046875 315.4987487792969 405.432373046875 Z" stroke="none" fill="#323135"/>
    </g>
    <g id="Rectangle_559" data-name="Rectangle 559" transform="translate(256.895 394.137)" fill="none" stroke="#323135" stroke-width="1.5">
      <rect width="7.184" height="6.844" stroke="none"/>
      <rect x="0.75" y="0.75" width="5.684" height="5.344" fill="none"/>
    </g>
  </g>
</svg>
