<svg xmlns="http://www.w3.org/2000/svg" width="128" height="128" viewBox="0 0 128 128">
  <title>CHECKLIST</title>
  <g>
    <path d="M80.58,23.61H73.864a7.69,7.69,0,0,0-7.344-6.36H61.48a7.688,7.688,0,0,0-7.344,6.36H47.42a1.75,1.75,0,0,0-1.75,1.75v3.51H37.34a7.759,7.759,0,0,0-7.75,7.75V103a7.759,7.759,0,0,0,7.75,7.75H90.66A7.759,7.759,0,0,0,98.41,103V36.62a7.759,7.759,0,0,0-7.75-7.75H82.33V25.36A1.751,1.751,0,0,0,80.58,23.61ZM49.17,30.62V27.11h6.54a1.751,1.751,0,0,0,1.75-1.75c0-2.542,1.8-4.61,4.02-4.61h5.04c2.217,0,4.02,2.068,4.02,4.61a1.751,1.751,0,0,0,1.75,1.75h6.54v7.06H49.17Zm41.49,1.75a4.255,4.255,0,0,1,4.25,4.25V103a4.255,4.255,0,0,1-4.25,4.25H37.34A4.255,4.255,0,0,1,33.09,103V36.62a4.255,4.255,0,0,1,4.25-4.25h8.33v3.55a1.75,1.75,0,0,0,1.75,1.75H80.58a1.751,1.751,0,0,0,1.75-1.75V32.37Z"/>
    <path d="M46.805,55.672a1.741,1.741,0,0,0,1.237-.513l4.2-4.2a1.75,1.75,0,0,0-2.475-2.475l-2.961,2.96-1.731-1.731A1.75,1.75,0,0,0,42.6,52.19l2.969,2.969A1.743,1.743,0,0,0,46.805,55.672Z"/>
    <path d="M82.514,53.573a1.75,1.75,0,0,0,0-3.5H59.182a1.75,1.75,0,0,0,0,3.5Z"/>
    <path d="M46.805,69.249a1.741,1.741,0,0,0,1.237-.513l4.2-4.2a1.75,1.75,0,1,0-2.475-2.475l-2.961,2.96-1.731-1.731A1.75,1.75,0,0,0,42.6,65.767l2.969,2.969A1.743,1.743,0,0,0,46.805,69.249Z"/>
    <path d="M82.514,67.149a1.75,1.75,0,1,0,0-3.5H59.182a1.75,1.75,0,0,0,0,3.5Z"/>
    <path d="M46.805,82.826a1.75,1.75,0,0,0,1.237-.513l4.2-4.2a1.75,1.75,0,1,0-2.475-2.475L46.805,78.6,45.074,76.87A1.75,1.75,0,0,0,42.6,79.345l2.969,2.968A1.75,1.75,0,0,0,46.805,82.826Z"/>
    <path d="M82.514,80.727a1.75,1.75,0,0,0,0-3.5H59.182a1.75,1.75,0,1,0,0,3.5Z"/>
    <path d="M46.805,96.4a1.741,1.741,0,0,0,1.237-.513l4.2-4.2a1.75,1.75,0,1,0-2.475-2.475l-2.961,2.96-1.731-1.731A1.75,1.75,0,0,0,42.6,92.921l2.969,2.969A1.743,1.743,0,0,0,46.805,96.4Z"/>
    <path d="M82.514,94.3a1.75,1.75,0,1,0,0-3.5H59.182a1.75,1.75,0,0,0,0,3.5Z"/>
  </g>
</svg>
