<svg id="field_time" data-name="field time" xmlns="http://www.w3.org/2000/svg" width="36.808" height="35.828" viewBox="0 0 36.808 35.828">
  <path id="Tracé_142" data-name="Tracé 142" d="M40.2,19.216H32.02a.371.371,0,0,0-.371.371v2.2a.369.369,0,0,0,.371.362H40.2a.367.367,0,0,0,.362-.362v-2.2A.369.369,0,0,0,40.2,19.216Zm-2.584,6.237H32.02a.369.369,0,0,0-.371.362v2.2a.371.371,0,0,0,.371.371h5.592a.369.369,0,0,0,.362-.371v-2.2A.367.367,0,0,0,37.611,25.453ZM22.313,15.12H20.328a.5.5,0,0,0-.508.508V27a.514.514,0,0,0,.205.411l6.823,4.976a.524.524,0,0,0,.723-.108l1.173-1.613h0a.5.5,0,0,0-.117-.714l-5.807-4.2V15.628A.5.5,0,0,0,22.313,15.12Z" transform="translate(-3.749 -5.891)"/>
  <path id="Tracé_143" data-name="Tracé 143" d="M36.949,31.008H34.309a.746.746,0,0,0-.645.352,14.479,14.479,0,0,1-2.033,2.551,14.579,14.579,0,0,1-20.646,0,14.388,14.388,0,0,1-3.138-4.643,14.674,14.674,0,0,1,0-11.359,14.388,14.388,0,0,1,3.138-4.643,14.591,14.591,0,0,1,22.679,2.551.768.768,0,0,0,.645.352h2.639a.42.42,0,0,0,.381-.606,17.918,17.918,0,1,0,0,16.051A.423.423,0,0,0,36.949,31.008Z" transform="translate(-3.38 -5.678)"/>
</svg>
