<svg xmlns="http://www.w3.org/2000/svg" width="128" height="128" viewBox="0 0 128 128">
  <title>FINANCE</title>
  <g>
    <path d="M61.17,90.593H79.8a9.247,9.247,0,0,0,6.58-2.726l23.86-23.86a1.749,1.749,0,0,0,0-2.475,16.216,16.216,0,0,0-22.906,0l-6.023,6.023a8.556,8.556,0,0,0-8.557-8.526h-22.6a7.28,7.28,0,0,0-5.184,2.148L31.121,75.024l-2.033-2.033a1.751,1.751,0,0,0-2.475,0l-8.851,8.851a1.751,1.751,0,0,0,0,2.475l25.921,25.92a1.748,1.748,0,0,0,2.474,0l8.851-8.851a1.748,1.748,0,0,0,0-2.474l-1.544-1.545,6.117-6.117A2.235,2.235,0,0,1,61.17,90.593ZM44.92,106.525,21.475,83.079,27.851,76.7,51.3,100.149ZM50.991,94.89,33.622,77.473,47.444,63.651a3.81,3.81,0,0,1,2.709-1.122h22.6a5.061,5.061,0,0,1,5.034,5.56,5.259,5.259,0,0,1-5.327,4.556H61.42a1.75,1.75,0,0,0,0,3.5H76.943a1.749,1.749,0,0,0,1.237-.512L89.805,64.007a12.7,12.7,0,0,1,16.636-1.154L83.9,85.392a5.768,5.768,0,0,1-4.105,1.7H61.17a5.708,5.708,0,0,0-4.064,1.683Z"/>
    <path d="M83.455,36.705A19.455,19.455,0,1,0,64,56.161,19.477,19.477,0,0,0,83.455,36.705Zm-35.41,0A15.955,15.955,0,1,1,64,52.661,15.973,15.973,0,0,1,48.045,36.705Z"/>
    <path d="M64.37,42.151H63A1.35,1.35,0,0,1,61.652,40.8a1.75,1.75,0,0,0-3.5,0,4.843,4.843,0,0,0,4.1,4.772v1.606a1.75,1.75,0,0,0,3.5,0V45.468a5.483,5.483,0,0,0,4.1-5.3,4.88,4.88,0,0,0-3.733-4.753l-3.4-.83a1.39,1.39,0,0,1-1.063-1.353v-.63A1.349,1.349,0,0,1,63,31.259h2a1.349,1.349,0,0,1,1.348,1.348,1.75,1.75,0,0,0,3.5,0,4.842,4.842,0,0,0-4.1-4.772V26.229a1.75,1.75,0,0,0-3.5,0v1.606a4.842,4.842,0,0,0-4.1,4.772v.63a4.881,4.881,0,0,0,3.733,4.753l3.4.83a1.389,1.389,0,0,1,1.062,1.353A1.98,1.98,0,0,1,64.37,42.151Z"/>
  </g>
</svg>
