<svg xmlns="http://www.w3.org/2000/svg" width="128" height="128" viewBox="0 0 128 128">
  <title>HOME REPAIR</title>
  <path d="M70.868,85.37a1.749,1.749,0,0,0-1.038,1.6V109a1.75,1.75,0,0,0,1.75,1.75h28.44a10.745,10.745,0,0,0,10.73-10.73V61.689a11.376,11.376,0,0,0-3.559-8.243L72.422,20.6a12.262,12.262,0,0,0-16.843,0L20.809,53.446a11.376,11.376,0,0,0-3.559,8.243V100.02a10.742,10.742,0,0,0,10.73,10.73H56.439a1.75,1.75,0,0,0,1.75-1.75l-.005-22.031a1.75,1.75,0,0,0-1.04-1.6,16.9,16.9,0,0,1-3.118-29.132V68.479a1.751,1.751,0,0,0,.873,1.514l8.231,4.766a1.749,1.749,0,0,0,1.753,0L73.107,70a1.752,1.752,0,0,0,.874-1.514l.005-12.25A16.791,16.791,0,0,1,80.932,69.9,16.968,16.968,0,0,1,70.868,85.37ZM84.432,69.9A20.3,20.3,0,0,0,73.01,51.578a1.749,1.749,0,0,0-2.522,1.569l-.007,14.329-6.474,3.746L57.526,67.47V53.148A1.75,1.75,0,0,0,55,51.578a20.4,20.4,0,0,0-.32,36.493l0,19.179H27.98a7.238,7.238,0,0,1-7.23-7.23V61.689a7.866,7.866,0,0,1,2.461-5.7l34.772-32.85a8.758,8.758,0,0,1,12.035,0l34.77,32.849h0a7.862,7.862,0,0,1,2.461,5.7V100.02a7.244,7.244,0,0,1-7.23,7.23H73.33V88.069A20.472,20.472,0,0,0,84.432,69.9Z"/>
</svg>
