<?xml version="1.0" encoding="utf-8"?>
<!-- Generator: Adobe Illustrator 23.0.6, SVG Export Plug-In . SVG Version: 6.00 Build 0)  -->
<svg version="1.1" id="Layer_1" xmlns="http://www.w3.org/2000/svg" xmlns:xlink="http://www.w3.org/1999/xlink" x="0px" y="0px"
	 viewBox="0 0 128 128" style="enable-background:new 0 0 128 128;" xml:space="preserve">
<title>PROPERTY</title>
<path d="M92.7,54.7c-0.2-21-17.3-37.4-37.7-37.4c-20.9,0-37.5,16.9-37.7,37.4c-0.2,20.9,16.7,38,37.7,38c6.6,0,13.2-1.7,19.1-5.2
	l20.1,20.1c3.7,3.7,9.7,3.7,13.4,0c3.7-3.7,3.7-9.7,0-13.4L87.5,74.1C90.8,68.5,92.8,61.7,92.7,54.7z M55.6,89.2
	c-11.7,0.2-23-5.6-29.6-16c12.3,0,57.9,0,58,0C77.8,83.1,66.9,89,55.6,89.2z M60,54.1H50c-1,0-1.8,0.8-1.8,1.8v13.7H41V51
	c1.4-1.2-5.2,4.2,14-11.3L69,51v18.6h-7.2V55.9C61.7,54.9,61,54.1,60,54.1z M58.3,57.6v12h-6.5v-12H58.3z M105.1,96.7
	c2.3,2.3,2.3,6.1,0,8.4c-2.3,2.3-6.1,2.3-8.4,0L77.1,85.5c3.2-2.3,6.1-5.2,8.4-8.4L105.1,96.7z M85.9,69.6H72.5V53.8l2.5,2
	c0.8,0.6,1.9,0.5,2.5-0.3c0.6-0.8,0.5-1.9-0.3-2.5l0,0c0,0-20.5-16.5-21.1-16.9c-0.7-0.6-1.4-0.7-2.2,0C53.4,36.5,35,51.3,32.8,53
	c-0.8,0.6-0.9,1.7-0.3,2.5c0.6,0.8,1.7,0.9,2.5,0.3l2.5-2v15.8H24c-2.3-4.8-3.3-9.9-3.3-15c0.2-19,15.7-33.9,34.2-33.9
	C73.9,20.8,89,36,89.2,54.7C89.3,59.8,88.2,64.9,85.9,69.6z"/>
</svg>
