<svg xmlns="http://www.w3.org/2000/svg" width="128" height="128" viewBox="0 0 128 128">
  <title>SURVEY</title>
  <g>
    <path d="M87.764,37.764c-.013-.026-.027-.051-.041-.077a1.759,1.759,0,0,0-.282-.384L67.9,17.763a1.7,1.7,0,0,0-.387-.283c-.024-.014-.049-.027-.074-.04a1.747,1.747,0,0,0-.776-.19H27.224A7.758,7.758,0,0,0,19.474,25v78a7.759,7.759,0,0,0,7.75,7.75H80.2a7.759,7.759,0,0,0,7.75-7.75V82.9l15.573-15.573.016-.013,3.014-3.013a6.725,6.725,0,1,0-9.511-9.511l-3,3-.006,0-6.082,6.082V38.54A1.747,1.747,0,0,0,87.764,37.764ZM68.41,23.225,81.978,36.793H72.66a4.254,4.254,0,0,1-4.25-4.25ZM84.454,103a4.254,4.254,0,0,1-4.25,4.25H27.224a4.254,4.254,0,0,1-4.25-4.25V25a4.254,4.254,0,0,1,4.25-4.25H64.91V32.543a7.759,7.759,0,0,0,7.75,7.75H84.454V67.385L68.1,83.743a1.736,1.736,0,0,0-.47.854l-2.04,9.079a1.749,1.749,0,0,0,1.707,2.133,1.724,1.724,0,0,0,.384-.042l9.07-2.041a1.751,1.751,0,0,0,.854-.469L84.454,86.4ZM99.52,57.268a3.3,3.3,0,0,1,4.562,0,3.231,3.231,0,0,1,0,4.562l-1.776,1.776-4.558-4.565Zm-4.251,4.251L99.83,66.08,84.969,80.94l0,0-9.479,9.479-5.878,1.321,1.324-5.886L87.437,69.352l.009-.009Z"/>
    <path d="M60.169,35.6a1.75,1.75,0,0,0,0-3.5H55.3a1.75,1.75,0,0,0,0,3.5Z"/>
    <path d="M67.294,44.988a1.75,1.75,0,0,0,0-3.5H55.3a1.75,1.75,0,0,0,0,3.5Z"/>
    <path d="M72.6,61.055a1.75,1.75,0,0,0,0-3.5H55.3a1.75,1.75,0,0,0,0,3.5Z"/>
    <path d="M72.6,70.445a1.75,1.75,0,0,0,0-3.5H55.3a1.75,1.75,0,0,0,0,3.5Z"/>
    <path d="M61.3,86.977a1.75,1.75,0,1,0,0-3.5h-6a1.75,1.75,0,0,0,0,3.5Z"/>
    <path d="M61.3,96.367a1.75,1.75,0,0,0,0-3.5h-6a1.75,1.75,0,0,0,0,3.5Z"/>
    <path d="M39.2,44.7a1.747,1.747,0,0,0,1.238-.512l8.041-8.041a1.75,1.75,0,1,0-2.475-2.475l-6.8,6.8-3.62-3.619a1.749,1.749,0,0,0-2.474,2.474l4.857,4.857A1.746,1.746,0,0,0,39.2,44.7Z"/>
    <path d="M39.2,69.77a1.747,1.747,0,0,0,1.238-.512l8.041-8.041a1.75,1.75,0,0,0-2.475-2.475l-6.8,6.8-3.62-3.62A1.749,1.749,0,0,0,33.11,64.4l4.857,4.858A1.746,1.746,0,0,0,39.2,69.77Z"/>
    <path d="M45.2,98.121A3.8,3.8,0,0,0,49,94.328V85.517A3.8,3.8,0,0,0,45.2,81.724h-8.81A3.8,3.8,0,0,0,32.6,85.517v8.811a3.8,3.8,0,0,0,3.794,3.793Zm-9.1-3.793V85.517a.293.293,0,0,1,.294-.293H45.2a.294.294,0,0,1,.294.293v8.811a.294.294,0,0,1-.294.293h-8.81A.294.294,0,0,1,36.1,94.328Z"/>
  </g>
</svg>
