<svg xmlns="http://www.w3.org/2000/svg" width="128" height="128" viewBox="0 0 128 128">
  <title>CALCULATION</title>
  <g>
    <path d="M74.241,17.25H37.121a1.741,1.741,0,0,0-.774.189l-.082.043a1.766,1.766,0,0,0-.382.281L17.494,36.152a1.748,1.748,0,0,0-.278.377c-.018.033-.035.064-.052.1a1.753,1.753,0,0,0-.147.415c0,.017,0,.034-.007.051a1.739,1.739,0,0,0-.029.3V98.06a7.4,7.4,0,0,0,7.39,7.4H59.458a7.264,7.264,0,0,0,7,5.29H98.31a7.3,7.3,0,0,0,7.29-7.29V60.89a7.3,7.3,0,0,0-7.29-7.29H81.64V24.65A7.407,7.407,0,0,0,74.241,17.25ZM35.373,23.226v8.521a3.9,3.9,0,0,1-3.9,3.9H22.954ZM59.289,59.614H46.158a1.75,1.75,0,0,0,0,3.5H59.17V73.426H46.158a1.75,1.75,0,0,0,0,3.5H59.17V87.238H46.158a1.75,1.75,0,0,0,0,3.5H59.17V101.96h-34.8a3.9,3.9,0,0,1-3.89-3.9V39.145H31.476a7.406,7.406,0,0,0,7.4-7.4v-11H74.241a3.9,3.9,0,0,1,3.9,3.9V53.6H66.46A7.3,7.3,0,0,0,59.289,59.614ZM98.31,57.1a3.794,3.794,0,0,1,3.79,3.79v42.57a3.794,3.794,0,0,1-3.79,3.79H66.46a3.778,3.778,0,0,1-3.782-3.617c0-.045,0-.128-.008-.173V60.89a3.8,3.8,0,0,1,3.79-3.79Z"/>
    <path d="M95.144,77.48a3.3,3.3,0,0,0,3.3-3.3V64.735a3.3,3.3,0,0,0-3.3-3.3H69.624a3.3,3.3,0,0,0-3.3,3.3v9.448a3.3,3.3,0,0,0,3.3,3.3ZM69.827,64.937H94.94V73.98H69.827Z"/>
    <path d="M72.248,90.8a3.18,3.18,0,0,0,3.177-3.177V84.272A3.18,3.18,0,0,0,72.248,81.1H68.9a3.179,3.179,0,0,0-3.176,3.176V87.62A3.179,3.179,0,0,0,68.9,90.8Zm-3.024-6.2h2.7v2.7h-2.7Z"/>
    <path d="M84.059,90.8a3.179,3.179,0,0,0,3.176-3.177V84.272A3.179,3.179,0,0,0,84.059,81.1H80.711a3.18,3.18,0,0,0-3.177,3.176V87.62A3.18,3.18,0,0,0,80.711,90.8Zm-3.025-6.2h2.7v2.7h-2.7Z"/>
    <path d="M95.869,103.364a3.181,3.181,0,0,0,3.178-3.176V84.272A3.181,3.181,0,0,0,95.869,81.1H92.522a3.181,3.181,0,0,0-3.177,3.176v15.916a3.181,3.181,0,0,0,3.177,3.176ZM92.845,84.6h2.7V99.864h-2.7Z"/>
    <path d="M72.248,103.364a3.18,3.18,0,0,0,3.177-3.176V96.84a3.18,3.18,0,0,0-3.177-3.177H68.9a3.179,3.179,0,0,0-3.176,3.177v3.348a3.179,3.179,0,0,0,3.176,3.176Zm-3.024-6.2h2.7v2.7h-2.7Z"/>
    <path d="M84.059,103.364a3.179,3.179,0,0,0,3.176-3.176V96.84a3.179,3.179,0,0,0-3.176-3.177H80.711a3.18,3.18,0,0,0-3.177,3.177v3.348a3.18,3.18,0,0,0,3.177,3.176Zm-3.025-6.2h2.7v2.7h-2.7Z"/>
    <path d="M33.78,65.213a1.741,1.741,0,0,0,1.237-.513l4.2-4.2a1.75,1.75,0,0,0-2.475-2.475L33.78,60.988l-1.731-1.732a1.75,1.75,0,1,0-2.475,2.475L32.543,64.7A1.743,1.743,0,0,0,33.78,65.213Z"/>
    <path d="M33.78,51.4a1.741,1.741,0,0,0,1.237-.513l4.2-4.2a1.75,1.75,0,0,0-2.475-2.475L33.78,47.177l-1.731-1.732a1.75,1.75,0,0,0-2.475,2.475l2.969,2.969A1.743,1.743,0,0,0,33.78,51.4Z"/>
    <path d="M69.489,49.3a1.75,1.75,0,0,0,0-3.5H46.157a1.75,1.75,0,0,0,0,3.5Z"/>
    <path d="M69.489,36.589a1.75,1.75,0,0,0,0-3.5H46.157a1.75,1.75,0,0,0,0,3.5Z"/>
    <path d="M33.78,79.026a1.741,1.741,0,0,0,1.237-.513l4.2-4.2a1.75,1.75,0,0,0-2.475-2.475L33.78,74.8l-1.731-1.732a1.75,1.75,0,0,0-2.475,2.475l2.969,2.969A1.743,1.743,0,0,0,33.78,79.026Z"/>
    <path d="M33.78,92.837a1.741,1.741,0,0,0,1.237-.513l4.2-4.2a1.75,1.75,0,1,0-2.475-2.475L33.78,88.612,32.049,86.88a1.75,1.75,0,0,0-2.475,2.475l2.969,2.969A1.743,1.743,0,0,0,33.78,92.837Z"/>
  </g>
</svg>
